<svg xmlns="http://www.w3.org/2000/svg" viewBox="0 0 512 512" width="512" height="512">
  <defs>
    <linearGradient id="bookGrad" x1="0%" y1="0%" x2="100%" y2="100%">
      <stop offset="0%" style="stop-color:#3BE477"/>
      <stop offset="50%" style="stop-color:#1DB954"/>
      <stop offset="100%" style="stop-color:#11833B"/>
    </linearGradient>
  </defs>
  <!-- Open book -->
  <path fill="url(#bookGrad)" d="M96 80c-8.8 0-16 7.2-16 16v304c0 8.8 7.2 16 16 16h320c8.8 0 16-7.2 16-16V96c0-8.8-7.2-16-16-16H96zm0 32h144v256H96V112zm176 0h144v256H272V112z"/>
  <path fill="#0d6b2e" d="M256 112v256h-32V112h32z"/>
  <!-- Text lines -->
  <g fill="white" opacity="0.9">
    <rect x="112" y="152" width="112" height="10" rx="2"/>
    <rect x="112" y="180" width="96" height="10" rx="2"/>
    <rect x="112" y="208" width="112" height="10" rx="2"/>
    <rect x="112" y="236" width="80" height="10" rx="2"/>
  </g>
  <!-- Trophy -->
  <path fill="#FFD700" d="M368 136c0-8.8-7.2-16-16-16h-32c-8.8 0-16 7.2-16 16v32h-16c-8.8 0-16 7.2-16 16v24c0 8.8 7.2 16 16 16h8v32c0 8.8 7.2 16 16 16h48c8.8 0 16-7.2 16-16v-32h8c8.8 0 16-7.2 16-16v-24c0-8.8-7.2-16-16-16h-16v-32zm-48 96h-32v-24h32v24z"/>
</svg>
